# xmcd CD database file
#
# Track frame offsets:
#	150
#	11835
#	23735
#	35015
#	45560
#	60117
#	73950
#	84132
#	95532
#	106647
#	119360
#	130852
#	141952
#
# Disc length: 2028 seconds
#
# Revision: 2
# Processed by: cddbd v1.5.2PL0 Copyright (c) Steve Scherf et al.
# Submitted via: CDex 1.70beta2
#
DISCID=a407ea0d
DTITLE=Patsy Cline - Walkin' After Midnight: The Best of Patsy Cline [BMG]
DYEAR=2000
DGENRE=Country
TTITLE0=Walkin' After Midnight
TTITLE1=If I Could Only Stay Asleep
TTITLE2=Just Out Of Reach
TTITLE3=Lovesick Blues
TTITLE4=Then You'll Know
TTITLE5=A Church, A Courtroom And Then Goodbye
TTITLE6=Three Cigarettes In An Ashtray
TTITLE7=That Wonderful Someone
TTITLE8=A Stranger In My Arms
TTITLE9=Just A Closer Walk With Thee
TTITLE10=Crazy Dream
TTITLE11=I Can't Forget You
TTITLE12=Walking Dream
EXTD=YEAR: 2000
EXTT0=
EXTT1=
EXTT2=
EXTT3=
EXTT4=
EXTT5=
EXTT6=
EXTT7=
EXTT8=
EXTT9=
EXTT10=
EXTT11=
EXTT12=
PLAYORDER=
